<mxfile host="app.diagrams.net" modified="2023-09-29T19:24:04.128Z" agent="Mozilla/5.0 (X11; Ubuntu; Linux x86_64; rv:109.0) Gecko/20100101 Firefox/117.0" etag="PvUhMkAv9FUsb-100mm5" version="21.1.1" type="github">
  <diagram id="C5RBs43oDa-KdzZeNtuy" name="Page-1">
    <mxGraphModel dx="1364" dy="720" grid="1" gridSize="10" guides="1" tooltips="1" connect="1" arrows="1" fold="1" page="1" pageScale="1" pageWidth="827" pageHeight="1169" math="0" shadow="0">
      <root>
        <mxCell id="WIyWlLk6GJQsqaUBKTNV-0" />
        <mxCell id="WIyWlLk6GJQsqaUBKTNV-1" parent="WIyWlLk6GJQsqaUBKTNV-0" />
        <mxCell id="PB0haKLTa38dYSC44rYB-0" value="" style="shape=cylinder3;whiteSpace=wrap;html=1;boundedLbl=1;backgroundOutline=1;size=15;labelBackgroundColor=none;" vertex="1" parent="WIyWlLk6GJQsqaUBKTNV-1">
          <mxGeometry x="720" y="330" width="80" height="110" as="geometry" />
        </mxCell>
        <mxCell id="PB0haKLTa38dYSC44rYB-1" value="" style="rounded=1;whiteSpace=wrap;html=1;labelBackgroundColor=none;" vertex="1" parent="WIyWlLk6GJQsqaUBKTNV-1">
          <mxGeometry x="30" y="200" width="120" height="60" as="geometry" />
        </mxCell>
        <mxCell id="PB0haKLTa38dYSC44rYB-2" value="" style="endArrow=classic;html=1;rounded=0;labelBackgroundColor=none;fontColor=default;exitX=1;exitY=0.5;exitDx=0;exitDy=0;" edge="1" parent="WIyWlLk6GJQsqaUBKTNV-1" source="PB0haKLTa38dYSC44rYB-1">
          <mxGeometry width="50" height="50" relative="1" as="geometry">
            <mxPoint x="160" y="230" as="sourcePoint" />
            <mxPoint x="200" y="229.5" as="targetPoint" />
          </mxGeometry>
        </mxCell>
        <mxCell id="PB0haKLTa38dYSC44rYB-13" value="" style="edgeStyle=orthogonalEdgeStyle;rounded=0;orthogonalLoop=1;jettySize=auto;html=1;labelBackgroundColor=none;fontColor=default;" edge="1" parent="WIyWlLk6GJQsqaUBKTNV-1" source="PB0haKLTa38dYSC44rYB-3" target="PB0haKLTa38dYSC44rYB-4">
          <mxGeometry relative="1" as="geometry" />
        </mxCell>
        <mxCell id="PB0haKLTa38dYSC44rYB-3" value="" style="shape=cylinder3;whiteSpace=wrap;html=1;boundedLbl=1;backgroundOutline=1;size=15;direction=south;labelBackgroundColor=none;" vertex="1" parent="WIyWlLk6GJQsqaUBKTNV-1">
          <mxGeometry x="200" y="200" width="110" height="60" as="geometry" />
        </mxCell>
        <mxCell id="PB0haKLTa38dYSC44rYB-4" value="" style="rounded=0;whiteSpace=wrap;html=1;labelBackgroundColor=none;" vertex="1" parent="WIyWlLk6GJQsqaUBKTNV-1">
          <mxGeometry x="370" y="200" width="120" height="60" as="geometry" />
        </mxCell>
        <mxCell id="PB0haKLTa38dYSC44rYB-7" value="" style="rounded=0;whiteSpace=wrap;html=1;dashed=1;labelBackgroundColor=none;" vertex="1" parent="WIyWlLk6GJQsqaUBKTNV-1">
          <mxGeometry x="470" y="340" width="210" height="130" as="geometry" />
        </mxCell>
        <mxCell id="PB0haKLTa38dYSC44rYB-15" value="" style="endArrow=classic;html=1;rounded=0;entryX=0.5;entryY=0;entryDx=0;entryDy=0;entryPerimeter=0;labelBackgroundColor=none;fontColor=default;" edge="1" parent="WIyWlLk6GJQsqaUBKTNV-1" target="PB0haKLTa38dYSC44rYB-0">
          <mxGeometry width="50" height="50" relative="1" as="geometry">
            <mxPoint x="760" y="230" as="sourcePoint" />
            <mxPoint x="625" y="300" as="targetPoint" />
            <Array as="points">
              <mxPoint x="760" y="230" />
            </Array>
          </mxGeometry>
        </mxCell>
        <mxCell id="PB0haKLTa38dYSC44rYB-16" value="" style="shape=process;whiteSpace=wrap;html=1;backgroundOutline=1;labelBackgroundColor=none;" vertex="1" parent="WIyWlLk6GJQsqaUBKTNV-1">
          <mxGeometry x="530" y="200" width="120" height="60" as="geometry" />
        </mxCell>
        <mxCell id="PB0haKLTa38dYSC44rYB-18" value="" style="endArrow=classic;html=1;rounded=0;labelBackgroundColor=none;fontColor=default;" edge="1" parent="WIyWlLk6GJQsqaUBKTNV-1">
          <mxGeometry width="50" height="50" relative="1" as="geometry">
            <mxPoint x="490" y="230" as="sourcePoint" />
            <mxPoint x="530" y="229.5" as="targetPoint" />
          </mxGeometry>
        </mxCell>
        <mxCell id="PB0haKLTa38dYSC44rYB-19" value="" style="endArrow=classic;html=1;rounded=0;labelBackgroundColor=none;fontColor=default;entryX=0.538;entryY=-0.015;entryDx=0;entryDy=0;entryPerimeter=0;exitX=0.442;exitY=1.05;exitDx=0;exitDy=0;exitPerimeter=0;" edge="1" parent="WIyWlLk6GJQsqaUBKTNV-1" source="PB0haKLTa38dYSC44rYB-16" target="PB0haKLTa38dYSC44rYB-7">
          <mxGeometry width="50" height="50" relative="1" as="geometry">
            <mxPoint x="550" y="300" as="sourcePoint" />
            <mxPoint x="610" y="300" as="targetPoint" />
          </mxGeometry>
        </mxCell>
        <mxCell id="PB0haKLTa38dYSC44rYB-20" value="BBVA FTP" style="text;html=1;strokeColor=none;fillColor=none;align=center;verticalAlign=middle;whiteSpace=wrap;rounded=0;" vertex="1" parent="WIyWlLk6GJQsqaUBKTNV-1">
          <mxGeometry x="537.5" y="387.5" width="75" height="45" as="geometry" />
        </mxCell>
        <mxCell id="PB0haKLTa38dYSC44rYB-22" value="payout DB" style="text;html=1;strokeColor=none;fillColor=none;align=center;verticalAlign=middle;whiteSpace=wrap;rounded=0;" vertex="1" parent="WIyWlLk6GJQsqaUBKTNV-1">
          <mxGeometry x="725" y="370" width="75" height="45" as="geometry" />
        </mxCell>
        <mxCell id="PB0haKLTa38dYSC44rYB-24" value="generate files" style="text;html=1;strokeColor=none;fillColor=none;align=center;verticalAlign=middle;whiteSpace=wrap;rounded=0;" vertex="1" parent="WIyWlLk6GJQsqaUBKTNV-1">
          <mxGeometry x="552.5" y="207.5" width="75" height="45" as="geometry" />
        </mxCell>
        <mxCell id="PB0haKLTa38dYSC44rYB-25" value="SQS" style="text;html=1;strokeColor=none;fillColor=none;align=center;verticalAlign=middle;whiteSpace=wrap;rounded=0;" vertex="1" parent="WIyWlLk6GJQsqaUBKTNV-1">
          <mxGeometry x="210" y="207.5" width="75" height="45" as="geometry" />
        </mxCell>
        <mxCell id="PB0haKLTa38dYSC44rYB-26" value="Gemini Consumer" style="text;html=1;strokeColor=none;fillColor=none;align=center;verticalAlign=middle;whiteSpace=wrap;rounded=0;" vertex="1" parent="WIyWlLk6GJQsqaUBKTNV-1">
          <mxGeometry x="378.75" y="207.5" width="102.5" height="45" as="geometry" />
        </mxCell>
        <mxCell id="PB0haKLTa38dYSC44rYB-27" value="" style="endArrow=none;html=1;rounded=0;" edge="1" parent="WIyWlLk6GJQsqaUBKTNV-1">
          <mxGeometry width="50" height="50" relative="1" as="geometry">
            <mxPoint x="650" y="229.5" as="sourcePoint" />
            <mxPoint x="760" y="230" as="targetPoint" />
          </mxGeometry>
        </mxCell>
        <mxCell id="PB0haKLTa38dYSC44rYB-28" value="send" style="text;html=1;strokeColor=none;fillColor=none;align=center;verticalAlign=middle;whiteSpace=wrap;rounded=0;" vertex="1" parent="WIyWlLk6GJQsqaUBKTNV-1">
          <mxGeometry x="570" y="260" width="75" height="45" as="geometry" />
        </mxCell>
        <mxCell id="PB0haKLTa38dYSC44rYB-29" value="every x min" style="text;html=1;strokeColor=none;fillColor=none;align=center;verticalAlign=middle;whiteSpace=wrap;rounded=0;" vertex="1" parent="WIyWlLk6GJQsqaUBKTNV-1">
          <mxGeometry x="42.5" y="170" width="67.5" height="17.5" as="geometry" />
        </mxCell>
        <mxCell id="PB0haKLTa38dYSC44rYB-30" value="Two types of file layouts " style="text;html=1;strokeColor=none;fillColor=none;align=center;verticalAlign=middle;whiteSpace=wrap;rounded=0;" vertex="1" parent="WIyWlLk6GJQsqaUBKTNV-1">
          <mxGeometry x="412.5" y="110" width="185" height="45" as="geometry" />
        </mxCell>
        <mxCell id="PB0haKLTa38dYSC44rYB-31" value="&lt;div data-docx-has-block-data=&quot;false&quot; data-page-id=&quot;AbHSd1EbSoch8Gx2MzwuCeElsig&quot;&gt;&lt;div class=&quot;old-record-id-SdUPdPPjyo43lsxQXbdu61kssxe&quot; style=&quot;&quot;&gt;.PRO - international transactions&lt;br&gt;&lt;/div&gt;&lt;/div&gt;" style="text;html=1;strokeColor=none;fillColor=none;align=center;verticalAlign=middle;whiteSpace=wrap;rounded=0;" vertex="1" parent="WIyWlLk6GJQsqaUBKTNV-1">
          <mxGeometry x="570" y="100" width="185" height="45" as="geometry" />
        </mxCell>
        <mxCell id="PB0haKLTa38dYSC44rYB-32" value=".TRN - domestics transacions" style="text;html=1;strokeColor=none;fillColor=none;align=center;verticalAlign=middle;whiteSpace=wrap;rounded=0;" vertex="1" parent="WIyWlLk6GJQsqaUBKTNV-1">
          <mxGeometry x="570" y="120" width="185" height="45" as="geometry" />
        </mxCell>
        <mxCell id="PB0haKLTa38dYSC44rYB-33" value="" style="rounded=0;whiteSpace=wrap;html=1;labelBackgroundColor=none;" vertex="1" parent="WIyWlLk6GJQsqaUBKTNV-1">
          <mxGeometry x="300" y="560" width="119.37" height="80" as="geometry" />
        </mxCell>
        <mxCell id="PB0haKLTa38dYSC44rYB-34" value="" style="endArrow=classic;html=1;rounded=0;labelBackgroundColor=none;fontColor=default;" edge="1" parent="WIyWlLk6GJQsqaUBKTNV-1">
          <mxGeometry width="50" height="50" relative="1" as="geometry">
            <mxPoint x="521.25" y="552.5" as="sourcePoint" />
            <mxPoint x="521.25" y="472.5" as="targetPoint" />
          </mxGeometry>
        </mxCell>
        <mxCell id="PB0haKLTa38dYSC44rYB-35" value="Gemini Consumer" style="text;html=1;strokeColor=none;fillColor=none;align=center;verticalAlign=middle;whiteSpace=wrap;rounded=0;" vertex="1" parent="WIyWlLk6GJQsqaUBKTNV-1">
          <mxGeometry x="310" y="577.5" width="102.5" height="45" as="geometry" />
        </mxCell>
        <mxCell id="PB0haKLTa38dYSC44rYB-36" value="" style="shape=process;whiteSpace=wrap;html=1;backgroundOutline=1;labelBackgroundColor=none;" vertex="1" parent="WIyWlLk6GJQsqaUBKTNV-1">
          <mxGeometry x="481.25" y="560" width="128.75" height="80" as="geometry" />
        </mxCell>
        <mxCell id="PB0haKLTa38dYSC44rYB-38" value="download files" style="text;html=1;strokeColor=none;fillColor=none;align=center;verticalAlign=middle;whiteSpace=wrap;rounded=0;" vertex="1" parent="WIyWlLk6GJQsqaUBKTNV-1">
          <mxGeometry x="495.63" y="577.5" width="100" height="45" as="geometry" />
        </mxCell>
        <mxCell id="PB0haKLTa38dYSC44rYB-39" value="BBVA have file cycles that we need to check from time to time" style="text;html=1;strokeColor=none;fillColor=none;align=center;verticalAlign=middle;whiteSpace=wrap;rounded=0;" vertex="1" parent="WIyWlLk6GJQsqaUBKTNV-1">
          <mxGeometry x="220" y="510" width="210" height="50" as="geometry" />
        </mxCell>
        <mxCell id="PB0haKLTa38dYSC44rYB-41" value="Download processed files" style="text;html=1;strokeColor=none;fillColor=none;align=center;verticalAlign=middle;whiteSpace=wrap;rounded=0;" vertex="1" parent="WIyWlLk6GJQsqaUBKTNV-1">
          <mxGeometry x="570" y="490" width="102.5" height="45" as="geometry" />
        </mxCell>
        <mxCell id="PB0haKLTa38dYSC44rYB-43" value="" style="shape=process;whiteSpace=wrap;html=1;backgroundOutline=1;labelBackgroundColor=none;" vertex="1" parent="WIyWlLk6GJQsqaUBKTNV-1">
          <mxGeometry x="650" y="560" width="142.5" height="80" as="geometry" />
        </mxCell>
        <mxCell id="PB0haKLTa38dYSC44rYB-49" value="process response files" style="text;html=1;strokeColor=none;fillColor=none;align=center;verticalAlign=middle;whiteSpace=wrap;rounded=0;" vertex="1" parent="WIyWlLk6GJQsqaUBKTNV-1">
          <mxGeometry x="671.25" y="577.5" width="100" height="45" as="geometry" />
        </mxCell>
        <mxCell id="PB0haKLTa38dYSC44rYB-51" value="" style="rounded=1;whiteSpace=wrap;html=1;labelBackgroundColor=none;" vertex="1" parent="WIyWlLk6GJQsqaUBKTNV-1">
          <mxGeometry x="30" y="340" width="170" height="125" as="geometry" />
        </mxCell>
        <mxCell id="PB0haKLTa38dYSC44rYB-52" value="BBVA" style="text;html=1;strokeColor=none;fillColor=none;align=center;verticalAlign=middle;whiteSpace=wrap;rounded=0;" vertex="1" parent="WIyWlLk6GJQsqaUBKTNV-1">
          <mxGeometry x="77.5" y="380" width="75" height="45" as="geometry" />
        </mxCell>
        <mxCell id="PB0haKLTa38dYSC44rYB-55" value="" style="endArrow=classic;html=1;rounded=0;entryX=1.018;entryY=0.328;entryDx=0;entryDy=0;entryPerimeter=0;exitX=-0.024;exitY=0.315;exitDx=0;exitDy=0;exitPerimeter=0;" edge="1" parent="WIyWlLk6GJQsqaUBKTNV-1" source="PB0haKLTa38dYSC44rYB-7" target="PB0haKLTa38dYSC44rYB-51">
          <mxGeometry width="50" height="50" relative="1" as="geometry">
            <mxPoint x="470" y="440" as="sourcePoint" />
            <mxPoint x="230" y="440" as="targetPoint" />
          </mxGeometry>
        </mxCell>
        <mxCell id="PB0haKLTa38dYSC44rYB-56" value="and then sent the processed files back to FTP" style="text;html=1;strokeColor=none;fillColor=none;align=center;verticalAlign=middle;whiteSpace=wrap;rounded=0;" vertex="1" parent="WIyWlLk6GJQsqaUBKTNV-1">
          <mxGeometry x="200" y="422.5" width="261.25" height="17.5" as="geometry" />
        </mxCell>
        <mxCell id="PB0haKLTa38dYSC44rYB-58" value="Check new processed files" style="text;html=1;strokeColor=none;fillColor=none;align=center;verticalAlign=middle;whiteSpace=wrap;rounded=0;" vertex="1" parent="WIyWlLk6GJQsqaUBKTNV-1">
          <mxGeometry x="450" y="490" width="75" height="45" as="geometry" />
        </mxCell>
        <mxCell id="PB0haKLTa38dYSC44rYB-59" value="BBVA check the transactions files in FTP from cycles" style="text;html=1;strokeColor=none;fillColor=none;align=center;verticalAlign=middle;whiteSpace=wrap;rounded=0;" vertex="1" parent="WIyWlLk6GJQsqaUBKTNV-1">
          <mxGeometry x="238.75" y="352.5" width="227.5" height="17.5" as="geometry" />
        </mxCell>
        <mxCell id="PB0haKLTa38dYSC44rYB-60" value="" style="endArrow=classic;html=1;rounded=0;entryX=-0.014;entryY=0.862;entryDx=0;entryDy=0;entryPerimeter=0;" edge="1" parent="WIyWlLk6GJQsqaUBKTNV-1" target="PB0haKLTa38dYSC44rYB-7">
          <mxGeometry width="50" height="50" relative="1" as="geometry">
            <mxPoint x="210" y="452" as="sourcePoint" />
            <mxPoint x="440" y="320" as="targetPoint" />
          </mxGeometry>
        </mxCell>
        <mxCell id="PB0haKLTa38dYSC44rYB-66" value="" style="endArrow=classic;html=1;rounded=0;labelBackgroundColor=none;fontColor=default;entryX=0.538;entryY=-0.015;entryDx=0;entryDy=0;entryPerimeter=0;exitX=0.442;exitY=1.05;exitDx=0;exitDy=0;exitPerimeter=0;" edge="1" parent="WIyWlLk6GJQsqaUBKTNV-1">
          <mxGeometry width="50" height="50" relative="1" as="geometry">
            <mxPoint x="560" y="475" as="sourcePoint" />
            <mxPoint x="560" y="550" as="targetPoint" />
          </mxGeometry>
        </mxCell>
        <mxCell id="PB0haKLTa38dYSC44rYB-67" value="" style="endArrow=classic;html=1;rounded=0;" edge="1" parent="WIyWlLk6GJQsqaUBKTNV-1">
          <mxGeometry width="50" height="50" relative="1" as="geometry">
            <mxPoint x="211.25" y="387.5" as="sourcePoint" />
            <mxPoint x="461.25" y="387.5" as="targetPoint" />
          </mxGeometry>
        </mxCell>
        <mxCell id="PB0haKLTa38dYSC44rYB-69" value="" style="endArrow=classic;html=1;rounded=0;" edge="1" parent="WIyWlLk6GJQsqaUBKTNV-1">
          <mxGeometry width="50" height="50" relative="1" as="geometry">
            <mxPoint x="610" y="599.5" as="sourcePoint" />
            <mxPoint x="650" y="600" as="targetPoint" />
          </mxGeometry>
        </mxCell>
        <mxCell id="PB0haKLTa38dYSC44rYB-71" value="" style="endArrow=classic;html=1;rounded=0;" edge="1" parent="WIyWlLk6GJQsqaUBKTNV-1">
          <mxGeometry width="50" height="50" relative="1" as="geometry">
            <mxPoint x="760" y="550" as="sourcePoint" />
            <mxPoint x="760" y="440" as="targetPoint" />
          </mxGeometry>
        </mxCell>
        <mxCell id="PB0haKLTa38dYSC44rYB-72" value="" style="endArrow=classic;html=1;rounded=0;" edge="1" parent="WIyWlLk6GJQsqaUBKTNV-1">
          <mxGeometry width="50" height="50" relative="1" as="geometry">
            <mxPoint x="421.25" y="599.5" as="sourcePoint" />
            <mxPoint x="480" y="600" as="targetPoint" />
          </mxGeometry>
        </mxCell>
        <mxCell id="PB0haKLTa38dYSC44rYB-73" value="transactions requests" style="text;html=1;strokeColor=none;fillColor=none;align=center;verticalAlign=middle;whiteSpace=wrap;rounded=0;" vertex="1" parent="WIyWlLk6GJQsqaUBKTNV-1">
          <mxGeometry x="56.25" y="221.25" width="67.5" height="17.5" as="geometry" />
        </mxCell>
      </root>
    </mxGraphModel>
  </diagram>
</mxfile>
